<?xml version="1.0" encoding="UTF-8" standalone="no"?>
<svg
   xmlns:dc="http://purl.org/dc/elements/1.1/"
   xmlns:cc="http://creativecommons.org/ns#"
   xmlns:rdf="http://www.w3.org/1999/02/22-rdf-syntax-ns#"
   xmlns:svg="http://www.w3.org/2000/svg"
   xmlns="http://www.w3.org/2000/svg"
   xmlns:sodipodi="http://sodipodi.sourceforge.net/DTD/sodipodi-0.dtd"
   xmlns:inkscape="http://www.inkscape.org/namespaces/inkscape"
   sodipodi:docname="empty-trellis.svg"
   inkscape:version="1.0 (4035a4fb49, 2020-05-01)"
   id="svg1448"
   version="1.1"
   viewBox="0 0 132.29166 132.29167"
   height="500"
   width="500">
  <defs
     id="defs1442" />
  <sodipodi:namedview
     inkscape:window-maximized="1"
     inkscape:window-y="34"
     inkscape:window-x="10"
     inkscape:window-height="1396"
     inkscape:window-width="2540"
     inkscape:guide-bbox="true"
     showguides="true"
     units="px"
     showgrid="false"
     inkscape:document-rotation="0"
     inkscape:current-layer="layer1"
     inkscape:document-units="mm"
     inkscape:cy="242.27358"
     inkscape:cx="238.73719"
     inkscape:zoom="1.5168671"
     inkscape:pageshadow="2"
     inkscape:pageopacity="0.0"
     borderopacity="1.0"
     bordercolor="#666666"
     pagecolor="#ffffff"
     id="base" />
  <metadata
     id="metadata1445">
    <rdf:RDF>
      <cc:Work
         rdf:about="">
        <dc:format>image/svg+xml</dc:format>
        <dc:type
           rdf:resource="http://purl.org/dc/dcmitype/StillImage" />
        <dc:title></dc:title>
      </cc:Work>
    </rdf:RDF>
  </metadata>
  <g
     id="layer1"
     inkscape:groupmode="layer"
     inkscape:label="Layer 1">
    <path
       style="display:inline;fill:#b59765;fill-opacity:1;stroke:none;stroke-width:0.0505683px;stroke-linecap:butt;stroke-linejoin:miter;stroke-opacity:1"
       d="m 52.885501,2.46642 38.52369,37.548109 c 0,0 -0.207037,1.485681 -1.554492,1.438043 L 51.547964,3.9920623 c 0,0 -0.09737,-1.5039952 1.337537,-1.5256423 z"
       id="path1137" />
    <path
       id="path1137-4"
       d="M 47.225674,9.8045056 91.011348,52.397303 c 0,0 -0.08405,1.575461 -1.431503,1.527823 L 45.888138,11.330148 c 0,0 -0.09737,-1.5040024 1.337536,-1.5256424 z"
       style="display:inline;fill:#b59765;fill-opacity:1;stroke:none;stroke-width:0.0505683px;stroke-linecap:butt;stroke-linejoin:miter;stroke-opacity:1"
       sodipodi:nodetypes="ccccc" />
    <path
       id="path1137-2"
       d="M 65.673739,2.0871045 90.99854,26.133241 c 0,0 0.170208,1.745057 -1.177246,1.697418 L 64.336203,3.6127555 c 0,0 -0.09737,-1.5040041 1.337536,-1.525651 z"
       style="display:inline;fill:#b59765;fill-opacity:1;stroke:none;stroke-width:0.0505683px;stroke-linecap:butt;stroke-linejoin:miter;stroke-opacity:1"
       sodipodi:nodetypes="ccccc" />
    <path
       sodipodi:nodetypes="ccccc"
       style="display:inline;fill:#b59765;fill-opacity:1;stroke:none;stroke-width:0.0505683px;stroke-linecap:butt;stroke-linejoin:miter;stroke-opacity:1"
       d="M 79.310051,2.4114865 91.282442,13.718379 c 0,0 -0.0087,1.468206 -1.356073,1.420569 L 77.972513,3.9371287 c 0,0 -0.09737,-1.5040025 1.337538,-1.5256422 z"
       id="path1137-2-6" />
    <path
       sodipodi:nodetypes="ccccc"
       style="display:inline;fill:#b59765;fill-opacity:1;stroke:none;stroke-width:0.0505683px;stroke-linecap:butt;stroke-linejoin:miter;stroke-opacity:1"
       d="m 47.209573,22.916675 43.785675,42.592798 c 0,0 -0.08405,1.57546 -1.431504,1.527822 L 45.872035,24.442325 c 0,0 -0.09737,-1.504002 1.337538,-1.52565 z"
       id="path1137-4-6" />
    <path
       id="path1137-4-6-4"
       d="M 47.793036,36.416138 91.57871,79.008936 c 0,0 -0.08405,1.575453 -1.431504,1.527822 L 46.455498,37.941781 c 0,0 -0.09737,-1.504003 1.337538,-1.525643 z"
       style="display:inline;fill:#b59765;fill-opacity:1;stroke:none;stroke-width:0.0505683px;stroke-linecap:butt;stroke-linejoin:miter;stroke-opacity:1"
       sodipodi:nodetypes="ccccc" />
    <path
       id="path1137-4-6-9"
       d="m 47.098374,48.911993 43.785675,42.592788 c 0,0 -0.08405,1.575462 -1.431505,1.527824 L 45.760836,50.437635 c 0,0 -0.09737,-1.504002 1.337538,-1.525642 z"
       style="display:inline;fill:#b59765;fill-opacity:1;stroke:none;stroke-width:0.0505683px;stroke-linecap:butt;stroke-linejoin:miter;stroke-opacity:1"
       sodipodi:nodetypes="ccccc" />
    <path
       id="path1137-4-6-0"
       d="M 47.406138,75.539738 78.33892,105.87295 c 0,0 -1.017404,0.0815 -2.364858,0.0338 L 46.068599,77.065358 c 0,0 -0.09737,-1.504004 1.337539,-1.52565 z"
       style="display:inline;fill:#b59765;fill-opacity:1;stroke:#000000;stroke-width:0.0505683px;stroke-linecap:butt;stroke-linejoin:miter;stroke-opacity:1"
       sodipodi:nodetypes="ccccc" />
    <path
       sodipodi:nodetypes="ccccc"
       style="display:inline;fill:#b59765;fill-opacity:1;stroke:#000000;stroke-width:0.0505683px;stroke-linecap:butt;stroke-linejoin:miter;stroke-opacity:1"
       d="M 47.699621,87.962001 66.23998,105.88795 c 0,0 -1.135852,0.0556 -2.483306,0.007 L 46.362083,89.487633 c 0,0 -0.09737,-1.504001 1.337538,-1.525649 z"
       id="path1137-2-62"
       inkscape:transform-center-x="-66.439554"
       inkscape:transform-center-y="-303.57584" />
    <path
       style="display:inline;fill:#b59765;fill-opacity:1;stroke:#000000;stroke-width:0.0505683px;stroke-linecap:butt;stroke-linejoin:miter;stroke-opacity:1"
       d="m 89.44917,105.89665 0.963622,-0.0147 v -1.81599 L 47.182176,61.880028 c 0,0 -1.332098,-0.0022 -1.450291,1.441519 z"
       id="path968" />
    <path
       style="display:inline;fill:#946e4a;fill-opacity:1;fill-rule:nonzero;stroke:none;stroke-width:0.0506478;stroke-linecap:butt;stroke-linejoin:miter;stroke-miterlimit:4;stroke-dasharray:none;stroke-opacity:1"
       d="M 45.638046,13.08076 57.941101,2.5659288 c 0,0 1.506229,0.3244644 1.363167,1.6406712 L 47.028639,14.568293 c 0,0 -1.514678,0.02539 -1.390593,-1.487533 z"
       id="path1117" />
    <path
       style="display:inline;fill:none;fill-rule:evenodd;stroke:none;stroke-width:0.0505683px;stroke-linecap:butt;stroke-linejoin:miter;stroke-opacity:1"
       d="m 57.914478,8.5041103 v 0"
       id="path1123"
       inkscape:connector-type="polyline"
       inkscape:connector-curvature="0" />
    <path
       id="path1117-3"
       d="M 45.738721,26.183104 70.891853,1.8829049 c 0,0 1.506229,0.3244644 1.363167,1.6406712 L 47.004083,27.824742 c 0,0 -1.389446,-0.128678 -1.265362,-1.641638 z"
       style="display:inline;fill:#946e4a;fill-opacity:1;fill-rule:nonzero;stroke:none;stroke-width:0.0506478;stroke-linecap:butt;stroke-linejoin:miter;stroke-miterlimit:4;stroke-dasharray:none;stroke-opacity:1"
       sodipodi:nodetypes="ccccc" />
    <path
       sodipodi:nodetypes="ccccc"
       style="display:inline;fill:#946e4a;fill-opacity:1;fill-rule:nonzero;stroke:none;stroke-width:0.0506478;stroke-linecap:butt;stroke-linejoin:miter;stroke-miterlimit:4;stroke-dasharray:none;stroke-opacity:1"
       d="M 46.177003,39.938128 84.486363,2.2727066 c 0,0 1.506228,0.3244643 1.363167,1.6406705 L 47.423412,41.516765 c 0,0 -1.370494,-0.06569 -1.246409,-1.578637 z"
       id="path1117-3-1" />
    <path
       id="path1117-3-1-4"
       d="M 45.820394,52.785434 90.048289,10.140721 c 0,0 1.50623,0.324464 1.363167,1.640678 L 47.270453,54.1776 c 0,0 -1.574142,0.120798 -1.450059,-1.392166 z"
       style="display:inline;fill:#946e4a;fill-opacity:1;fill-rule:nonzero;stroke:none;stroke-width:0.0506478;stroke-linecap:butt;stroke-linejoin:miter;stroke-miterlimit:4;stroke-dasharray:none;stroke-opacity:1"
       sodipodi:nodetypes="ccccc" />
    <path
       sodipodi:nodetypes="ccccc"
       style="display:inline;fill:#946e4a;fill-opacity:1;fill-rule:nonzero;stroke:none;stroke-width:0.0506478;stroke-linecap:butt;stroke-linejoin:miter;stroke-miterlimit:4;stroke-dasharray:none;stroke-opacity:1"
       d="M 46.000439,65.607949 90.228333,22.963242 c 0,0 1.506229,0.324465 1.363166,1.640671 L 47.450496,67.000114 c 0,0 -1.574142,0.120798 -1.450057,-1.392165 z"
       id="path1117-3-1-4-9" />
    <path
       id="path1117-3-1-4-9-2"
       d="M 45.934528,79.02379 90.162423,36.379083 c 0,0 1.506229,0.324464 1.363167,1.640679 L 47.384585,80.415954 c 0,0 -1.574142,0.120797 -1.450057,-1.392164 z"
       style="display:inline;fill:#946e4a;fill-opacity:1;fill-rule:nonzero;stroke:none;stroke-width:0.0506478;stroke-linecap:butt;stroke-linejoin:miter;stroke-miterlimit:4;stroke-dasharray:none;stroke-opacity:1"
       sodipodi:nodetypes="ccccc" />
    <path
       sodipodi:nodetypes="ccccc"
       style="display:inline;fill:#946e4a;fill-opacity:1;fill-rule:nonzero;stroke:none;stroke-width:0.0506478;stroke-linecap:butt;stroke-linejoin:miter;stroke-miterlimit:4;stroke-dasharray:none;stroke-opacity:1"
       d="M 45.544221,91.640108 89.772116,48.995405 c 0,0 1.506229,0.324465 1.363167,1.640671 L 46.994278,93.032282 c 0,0 -1.574142,0.120783 -1.450057,-1.392174 z"
       id="path1117-3-1-4-9-2-0" />
    <path
       sodipodi:nodetypes="ccccc"
       style="display:inline;fill:#946e4a;fill-opacity:1;fill-rule:nonzero;stroke:#000000;stroke-width:0.0506478;stroke-linecap:butt;stroke-linejoin:miter;stroke-miterlimit:4;stroke-dasharray:none;stroke-opacity:1"
       d="M 58.044772,105.86412 90.108198,75.184331 c 0,0 1.506231,0.324456 1.363165,1.640663 L 60.672915,105.88918 c 0,0 -2.752227,1.48792 -2.628143,-0.0249 z"
       id="path1117-3-1-4-9-2-0-6-8" />
    <path
       id="path1117-3-1-4-9-2-0-6-8-9"
       d="M 70.904483,105.86826 89.574741,87.824838 c 0,0 1.50623,0.324457 1.363166,1.640678 L 73.351745,105.86795 c 0.187696,0 -2.571344,1.51329 -2.447262,5.8e-4 z"
       style="display:inline;fill:#946e4a;fill-opacity:1;fill-rule:nonzero;stroke:#000000;stroke-width:0.0506478;stroke-linecap:butt;stroke-linejoin:miter;stroke-miterlimit:4;stroke-dasharray:none;stroke-opacity:1"
       sodipodi:nodetypes="ccccc" />
    <path
       style="display:inline;fill:#946e4a;fill-opacity:1;stroke:#000000;stroke-width:0.0505683px;stroke-linecap:butt;stroke-linejoin:miter;stroke-opacity:1"
       d="M 48.407522,105.90297 V 103.2826 L 90.259514,61.822076 c 0,0 1.364748,0.42317 1.373659,1.824451 L 48.931152,105.86052 Z"
       id="path970"
       sodipodi:nodetypes="cccccc" />
    <circle
       style="display:inline;fill:#d0d4de;fill-opacity:1;stroke:none;stroke-width:0.165613;stroke-linecap:round;stop-color:#000000"
       id="path985"
       cx="88.864182"
       cy="12.652425"
       r="0.30681825" />
    <circle
       r="0.30681825"
       cy="6.1286049"
       cx="81.966782"
       id="path985-9"
       style="display:inline;fill:#d0d4de;fill-opacity:1;stroke:none;stroke-width:0.165613;stroke-linecap:round;stop-color:#000000" />
    <circle
       style="display:inline;fill:#d0d4de;fill-opacity:1;stroke:none;stroke-width:0.165613;stroke-linecap:round;stop-color:#000000"
       id="path985-9-1"
       cx="68.226646"
       cy="5.9454861"
       r="0.30681825" />
    <circle
       style="display:inline;fill:#d0d4de;fill-opacity:1;stroke:none;stroke-width:0.165613;stroke-linecap:round;stop-color:#000000"
       id="path985-9-2"
       cx="55.264332"
       cy="6.1422758"
       r="0.30681825" />
    <circle
       r="0.30681825"
       cy="12.142958"
       cx="48.376198"
       id="path985-9-2-7"
       style="display:inline;fill:#d0d4de;fill-opacity:1;stroke:none;stroke-width:0.165613;stroke-linecap:round;stop-color:#000000" />
    <circle
       r="0.30681825"
       cy="25.061966"
       cx="48.224056"
       id="path985-9-2-0"
       style="display:inline;fill:#d0d4de;fill-opacity:1;stroke:none;stroke-width:0.165613;stroke-linecap:round;stop-color:#000000" />
    <circle
       r="0.30681825"
       cy="38.766811"
       cx="48.712276"
       id="path985-9-2-9"
       style="display:inline;fill:#d0d4de;fill-opacity:1;stroke:none;stroke-width:0.165613;stroke-linecap:round;stop-color:#000000" />
    <circle
       r="0.30681825"
       cy="25.689829"
       cx="89.239456"
       id="path985-9-2-3"
       style="display:inline;fill:#d0d4de;fill-opacity:1;stroke:none;stroke-width:0.165613;stroke-linecap:round;stop-color:#000000" />
    <circle
       style="display:inline;fill:#d0d4de;fill-opacity:1;stroke:none;stroke-width:0.165613;stroke-linecap:round;stop-color:#000000"
       id="path985-9-2-3-0"
       cx="89.068886"
       cy="38.893726"
       r="0.30681825" />
    <circle
       style="display:inline;fill:#d0d4de;fill-opacity:1;stroke:none;stroke-width:0.165613;stroke-linecap:round;stop-color:#000000"
       id="path985-9-2-3-6"
       cx="88.66066"
       cy="51.581512"
       r="0.30681825" />
    <circle
       style="display:inline;fill:#d0d4de;fill-opacity:1;stroke:none;stroke-width:0.165613;stroke-linecap:round;stop-color:#000000"
       id="path985-9-2-3-2"
       cx="88.982964"
       cy="64.743599"
       r="0.30681825"
       inkscape:transform-center-x="-16.302322"
       inkscape:transform-center-y="2.9366646" />
    <circle
       inkscape:transform-center-y="2.9366687"
       inkscape:transform-center-x="-16.302325"
       r="0.30681825"
       cy="77.657753"
       cx="89.000053"
       id="path985-9-2-3-2-6"
       style="display:inline;fill:#d0d4de;fill-opacity:1;stroke:none;stroke-width:0.165613;stroke-linecap:round;stop-color:#000000" />
    <circle
       inkscape:transform-center-y="2.9366659"
       inkscape:transform-center-x="-16.30232"
       cy="90.502754"
       cx="88.480995"
       id="path985-9-2-3-2-1"
       style="display:inline;fill:#d0d4de;fill-opacity:1;stroke:none;stroke-width:0.165613;stroke-linecap:round;stop-color:#000000"
       r="0.30681825" />
    <circle
       inkscape:transform-center-y="2.936658"
       inkscape:transform-center-x="-16.302322"
       r="0.30681825"
       cy="90.046738"
       cx="48.501122"
       id="path985-9-2-3-2-8"
       style="display:inline;fill:#d0d4de;fill-opacity:1;stroke:none;stroke-width:0.165613;stroke-linecap:round;stop-color:#000000" />
    <circle
       inkscape:transform-center-y="2.9366668"
       inkscape:transform-center-x="-16.302327"
       r="0.30681825"
       cy="77.981888"
       cx="48.503071"
       id="path985-9-2-3-2-7"
       style="display:inline;fill:#d0d4de;fill-opacity:1;stroke:none;stroke-width:0.165613;stroke-linecap:round;stop-color:#000000" />
    <circle
       inkscape:transform-center-y="2.9366757"
       inkscape:transform-center-x="-16.302321"
       r="0.30681825"
       cy="64.61042"
       cx="48.411972"
       id="path985-9-2-3-2-9"
       style="display:inline;fill:#d0d4de;fill-opacity:1;stroke:none;stroke-width:0.165613;stroke-linecap:round;stop-color:#000000" />
    <ellipse
       inkscape:transform-center-y="2.9366707"
       inkscape:transform-center-x="-17.111615"
       cy="53.536121"
       cx="34.151058"
       id="path985-9-2-3-2-2"
       style="display:inline;fill:#d0d4de;fill-opacity:1;stroke:none;stroke-width:0.16867;stroke-linecap:round;stop-color:#000000"
       rx="0.30681825"
       ry="0.31825563"
       transform="matrix(1,0,0.26567668,0.96406219,0,0)" />
    <circle
       inkscape:transform-center-y="2.9366644"
       inkscape:transform-center-x="-16.302328"
       r="0.30681825"
       cy="19.067602"
       cx="82.169319"
       id="path985-9-2-3-2-0"
       style="display:inline;fill:#d0d4de;fill-opacity:1;stroke:none;stroke-width:0.165613;stroke-linecap:round;stop-color:#000000" />
    <circle
       inkscape:transform-center-y="2.9366633"
       inkscape:transform-center-x="-16.302323"
       r="0.30681825"
       cy="19.225506"
       cx="68.67746"
       id="path985-9-2-3-2-23"
       style="display:inline;fill:#d0d4de;fill-opacity:1;stroke:none;stroke-width:0.165613;stroke-linecap:round;stop-color:#000000" />
    <circle
       inkscape:transform-center-y="2.9366668"
       inkscape:transform-center-x="-16.302321"
       r="0.30681825"
       cy="18.921686"
       cx="54.840473"
       id="path985-9-2-3-2-75"
       style="display:inline;fill:#d0d4de;fill-opacity:1;stroke:none;stroke-width:0.165613;stroke-linecap:round;stop-color:#000000" />
    <circle
       inkscape:transform-center-y="2.9366648"
       inkscape:transform-center-x="-16.302327"
       r="0.30681825"
       cy="32.160301"
       cx="68.617233"
       id="path985-9-2-3-2-92"
       style="display:inline;fill:#d0d4de;fill-opacity:1;stroke:none;stroke-width:0.165613;stroke-linecap:round;stop-color:#000000" />
    <circle
       inkscape:transform-center-y="2.9366665"
       inkscape:transform-center-x="-16.302322"
       r="0.30681825"
       cy="45.091686"
       cx="68.652664"
       id="path985-9-2-3-2-28"
       style="display:inline;fill:#d0d4de;fill-opacity:1;stroke:none;stroke-width:0.165613;stroke-linecap:round;stop-color:#000000" />
    <circle
       inkscape:transform-center-y="2.9366661"
       inkscape:transform-center-x="-16.302324"
       r="0.30681825"
       cy="58.291782"
       cx="68.857651"
       id="path985-9-2-3-2-97"
       style="display:inline;fill:#d0d4de;fill-opacity:1;stroke:none;stroke-width:0.165613;stroke-linecap:round;stop-color:#000000" />
    <circle
       inkscape:transform-center-y="2.9366692"
       inkscape:transform-center-x="-16.302326"
       r="0.30681825"
       cy="71.014984"
       cx="68.341057"
       id="path985-9-2-3-2-3"
       style="display:inline;fill:#d0d4de;fill-opacity:1;stroke:none;stroke-width:0.165613;stroke-linecap:round;stop-color:#000000" />
    <circle
       inkscape:transform-center-y="2.9366697"
       inkscape:transform-center-x="-16.302328"
       r="0.30681825"
       cy="84.510185"
       cx="68.967438"
       id="path985-9-2-3-2-61"
       style="display:inline;fill:#d0d4de;fill-opacity:1;stroke:none;stroke-width:0.165613;stroke-linecap:round;stop-color:#000000" />
    <path
       style="display:inline;fill:#59643b;fill-opacity:1;stroke:#000000;stroke-width:0.0505683px;stroke-linecap:butt;stroke-linejoin:miter;stroke-opacity:1"
       d="m 53.962268,16.893703 -0.493233,0.01024 c 0,0 -0.314814,0.241358 -0.319916,0.403943 -0.0052,0.162592 0.226591,0.282713 0.226591,0.282713 0,0 -0.09323,0.918368 0.107046,0.929724 0.200282,0.01145 0.61437,-0.362065 0.61437,-0.362065 0,0 0.439197,0.528978 0.951476,0.287334 0,0 0.194818,-0.219832 -0.01014,-0.602982 0,0 0.0141,-0.366732 -0.07388,-0.492277 -0.08789,-0.125538 -0.483617,-0.293797 -0.304782,-0.436009 l 0.227643,-0.06156 c 0,0 -0.171993,-0.07995 -0.166926,-0.150016 0.0052,-0.07003 0.176307,-0.05572 0.176307,-0.05572 0,0 0.0095,0.186486 0.09181,0.211683 0.08229,0.02517 0.379859,-0.02143 0.402975,0.07916 l 0.471358,-0.403008 c 0,0 -0.430894,-0.313895 -0.469416,-0.710407 0,0 -0.159523,-0.430595 -0.310074,-0.474577 0,0 -0.3607,0.16507 -0.558463,0.472217 0,0 -0.140625,-0.436233 -0.16381,-0.560626 0,0 -0.135122,0.22005 -0.06375,0.630719 0,0 -0.299882,0.0079 -0.33095,-0.04749 -0.03105,-0.05543 -0.193769,-0.19372 -0.336008,-0.04277 -0.142239,0.150951 -0.143017,0.83062 0.141183,0.920294 0.284205,0.08967 0.190511,0.17134 0.190511,0.17134 z"
       id="path1179" />
    <path
       sodipodi:nodetypes="cccccc"
       id="path1015"
       d="m 87.537358,122.14359 v 2.46964 H 51.794545 v -2.86943 l 35.742865,5.8e-4 z"
       style="display:inline;fill:#39200d;fill-opacity:1;stroke:none;stroke-width:0.0509779px;stroke-linecap:butt;stroke-linejoin:miter;stroke-opacity:1" />
    <path
       style="display:inline;fill:#39200d;fill-opacity:1;stroke:none;stroke-width:0.0509779px;stroke-linecap:butt;stroke-linejoin:miter;stroke-opacity:1"
       d="m 87.537358,119.06112 v 2.46966 H 51.794545 v -2.86944 l 35.742865,5.7e-4 z"
       id="path1015-6"
       sodipodi:nodetypes="cccccc" />
    <path
       style="display:inline;fill:#39200d;fill-opacity:1;stroke:none;stroke-width:0.0509779px;stroke-linecap:butt;stroke-linejoin:miter;stroke-opacity:1"
       d="m 87.537358,115.96047 v 2.46965 H 51.794545 v -2.86943 l 35.742865,5.6e-4 z"
       id="path1015-7"
       sodipodi:nodetypes="cccccc" />
    <path
       style="display:inline;fill:#39200d;fill-opacity:1;stroke:none;stroke-width:0.0509779px;stroke-linecap:butt;stroke-linejoin:miter;stroke-opacity:1"
       d="m 87.537358,112.78548 v 2.46965 H 51.794545 v -2.86944 l 35.742865,5.8e-4 z"
       id="path1015-5"
       sodipodi:nodetypes="cccccc" />
    <path
       sodipodi:nodetypes="cccccc"
       id="path1015-5-3"
       d="m 87.537358,109.5834 v 2.46966 H 51.794545 v -2.86944 l 35.742865,5.7e-4 z"
       style="display:inline;fill:#39200d;fill-opacity:1;stroke:none;stroke-width:0.0509779px;stroke-linecap:butt;stroke-linejoin:miter;stroke-opacity:1" />
    <path
       sodipodi:nodetypes="cccccc"
       id="path1015-5-5"
       d="m 87.537358,106.2595 v 2.46963 H 51.794545 v -2.86942 l 35.742865,5.7e-4 z"
       style="display:inline;fill:#39200d;fill-opacity:1;stroke:none;stroke-width:0.0509779px;stroke-linecap:butt;stroke-linejoin:miter;stroke-opacity:1" />
    <path
       sodipodi:nodetypes="ccccc"
       id="path867"
       d="m 86.967113,130.00118 v -24.11189 h 3.457308 v 24.0877 c 0,0 -1.857374,2.30569 -3.457308,0.0242 z"
       style="display:inline;fill:#805f36;fill-opacity:1;stroke:none;stroke-width:0.0505683px;stroke-linecap:butt;stroke-linejoin:miter;stroke-opacity:1" />
    <path
       sodipodi:nodetypes="ccccc"
       id="path867-8-4"
       d="m 78.38816,124.9767 v -19.10156 h 3.457305 v 19.0824 c 0,0 -1.857373,1.82658 -3.457305,0.0192 z"
       style="display:inline;fill:#805f36;fill-opacity:1;stroke:none;stroke-width:0.0450088px;stroke-linecap:butt;stroke-linejoin:miter;stroke-opacity:1" />
    <path
       style="display:inline;fill:#805f36;fill-opacity:1;stroke:none;stroke-width:0.0450088px;stroke-linecap:butt;stroke-linejoin:miter;stroke-opacity:1"
       d="m 74.245946,124.97937 v -19.10156 h 3.457306 v 19.0824 c 0,0 -1.857376,1.82656 -3.457306,0.0192 z"
       id="path867-8-4-3"
       sodipodi:nodetypes="ccccc" />
    <path
       sodipodi:nodetypes="ccccc"
       id="path867-8-4-3-9"
       d="m 69.897036,124.96923 v -19.10157 h 3.457308 v 19.0824 c 0,0 -1.857375,1.82658 -3.457308,0.0192 z"
       style="display:inline;fill:#805f36;fill-opacity:1;stroke:none;stroke-width:0.0450088px;stroke-linecap:butt;stroke-linejoin:miter;stroke-opacity:1" />
    <path
       sodipodi:nodetypes="ccccc"
       id="path867-8-4-3-2"
       d="m 65.701924,124.97937 v -19.10156 h 3.457305 v 19.0824 c 0,0 -1.857374,1.82656 -3.457305,0.0192 z"
       style="display:inline;fill:#805f36;fill-opacity:1;stroke:none;stroke-width:0.0450088px;stroke-linecap:butt;stroke-linejoin:miter;stroke-opacity:1" />
    <path
       sodipodi:nodetypes="ccccc"
       id="path867-8-4-3-0"
       d="m 61.420877,124.97937 v -19.10156 h 3.457308 v 19.0824 c 0,0 -1.857375,1.82656 -3.457308,0.0192 z"
       style="display:inline;fill:#805f36;fill-opacity:1;stroke:none;stroke-width:0.0450088px;stroke-linecap:butt;stroke-linejoin:miter;stroke-opacity:1" />
    <path
       sodipodi:nodetypes="ccccc"
       id="path867-8-4-3-6"
       d="m 57.325129,124.97937 v -19.10156 h 3.457307 v 19.0824 c 0,0 -1.857375,1.82656 -3.457307,0.0192 z"
       style="display:inline;fill:#805f36;fill-opacity:1;stroke:none;stroke-width:0.0450088px;stroke-linecap:butt;stroke-linejoin:miter;stroke-opacity:1" />
    <path
       sodipodi:nodetypes="ccccc"
       id="path867-8-4-3-8"
       d="m 52.882468,124.97937 v -19.10156 h 3.457306 v 19.0824 c 0,0 -1.857375,1.82656 -3.457306,0.0192 z"
       style="display:inline;fill:#805f36;fill-opacity:1;stroke:none;stroke-width:0.0450088px;stroke-linecap:butt;stroke-linejoin:miter;stroke-opacity:1" />
    <path
       style="display:inline;fill:#805f36;fill-opacity:1;stroke:none;stroke-width:0.0505683px;stroke-linecap:butt;stroke-linejoin:miter;stroke-opacity:1"
       d="m 48.368291,130.00118 v -24.11189 h 3.457308 v 24.0877 c 0,0 -1.857376,2.30569 -3.457308,0.0242 z"
       id="path867-9"
       sodipodi:nodetypes="ccccc" />
    <path
       style="display:inline;fill:#805f36;fill-opacity:1;stroke:none;stroke-width:0.0450088px;stroke-linecap:butt;stroke-linejoin:miter;stroke-opacity:1"
       d="m 82.730746,124.9767 v -19.10156 h 3.457309 v 19.0824 c 0,0 -1.857376,1.82658 -3.457309,0.0192 z"
       id="path867-8-4-6"
       sodipodi:nodetypes="ccccc" />
  </g>
</svg>
